<svg version="1.1" id="Layer_1" xmlns="http://www.w3.org/2000/svg" xmlns:xlink="http://www.w3.org/1999/xlink" x="0px" y="0px"
	 width="100%" viewBox="0 0 400 400" enable-background="new 0 0 400 400" xml:space="preserve">
<path fill="#040404" opacity="1.000000" stroke="none" 
	d="
M229.000000,401.000000 
	C152.690353,401.000000 76.880722,401.000000 1.035541,401.000000 
	C1.035541,267.732025 1.035541,134.464050 1.035541,1.098030 
	C134.226257,1.098030 267.452606,1.098030 400.839478,1.098030 
	C400.839478,134.333176 400.839478,267.666565 400.839478,401.000000 
	C343.797455,401.000000 286.648712,401.000000 229.000000,401.000000 
M208.962677,40.628513 
	C176.366791,38.739281 145.707062,44.810154 117.249359,62.480339 
	C190.118973,161.161697 262.607056,259.326385 335.095154,357.491089 
	C335.595184,357.327423 336.095245,357.163727 336.595276,357.000061 
	C336.865509,355.300323 337.310791,353.607147 337.374634,351.899719 
	C337.610687,345.583862 337.435486,339.239655 337.957031,332.951050 
	C338.499664,326.408661 336.292572,321.266449 332.420227,316.054321 
	C305.876892,280.327271 279.590302,244.409424 253.100128,208.388657 
	C274.034546,179.221451 294.875702,150.184158 315.716888,121.146873 
	C316.867828,123.178139 317.021637,124.765678 317.017181,126.352776 
	C316.890381,171.669434 317.101593,216.991852 316.358978,262.298615 
	C316.173035,273.643036 321.972931,280.571655 329.066803,287.349945 
	C331.283295,289.467804 334.629364,290.403503 337.474487,291.888763 
	C337.474487,211.383270 337.474487,131.564301 337.474487,51.745327 
	C337.109802,51.610218 336.745117,51.475109 336.380432,51.340000 
	C303.938049,97.166985 271.495636,142.993973 238.830780,189.135178 
	C209.326859,149.545181 180.362534,110.679260 151.233154,71.591850 
	C201.441101,55.011951 246.534195,62.273876 286.143616,97.730408 
	C291.504852,91.425186 296.415344,85.650116 301.123322,80.113205 
	C274.867188,56.588181 244.924149,42.680241 208.962677,40.628513 
M57.001854,175.500000 
	C57.001854,213.585800 57.001854,251.671600 57.001854,289.707977 
	C64.298553,289.707977 71.033142,289.707977 78.203995,289.707977 
	C78.203995,233.061798 78.203995,176.717407 78.203995,118.783371 
	C119.174957,174.144791 159.227829,228.265656 199.747528,283.017303 
	C209.907608,268.090118 219.722504,253.717087 229.427032,239.269913 
	C229.900345,238.565308 229.802994,236.940979 229.299911,236.202148 
	C225.429474,230.517807 221.392929,224.946564 217.074921,218.871719 
	C210.714767,227.900482 204.808655,236.284729 198.714859,244.935379 
	C151.584991,180.045319 104.665825,115.445358 57.001854,49.819923 
	C57.001854,92.288490 57.001854,133.394241 57.001854,175.500000 
M263.473816,317.271362 
	C261.439941,318.387878 259.441406,319.575226 257.366791,320.610107 
	C231.986099,333.271057 205.435989,338.215149 177.229462,333.170135 
	C154.087143,329.030975 133.277557,319.980743 114.981590,305.123566 
	C113.137993,303.626434 110.000343,301.989349 108.131912,302.569763 
	C101.584633,304.603699 95.330086,307.579926 88.224854,310.502533 
	C117.087151,340.645813 152.141937,355.710693 192.668655,357.608002 
	C223.287170,359.041382 252.206009,352.573517 277.914398,334.013519 
	C273.048309,328.136902 268.607788,322.774170 263.473816,317.271362 
z"/>
<path fill="#F0F1EF" opacity="1.000000" stroke="none" 
	d="
M209.422684,40.679153 
	C244.924149,42.680241 274.867188,56.588181 301.123322,80.113205 
	C296.415344,85.650116 291.504852,91.425186 286.143616,97.730408 
	C246.534195,62.273876 201.441101,55.011951 151.233154,71.591850 
	C180.362534,110.679260 209.326859,149.545181 238.830780,189.135178 
	C271.495636,142.993973 303.938049,97.166985 336.380432,51.340000 
	C336.745117,51.475109 337.109802,51.610218 337.474487,51.745327 
	C337.474487,131.564301 337.474487,211.383270 337.474487,291.888763 
	C334.629364,290.403503 331.283295,289.467804 329.066803,287.349945 
	C321.972931,280.571655 316.173035,273.643036 316.358978,262.298615 
	C317.101593,216.991852 316.890381,171.669434 317.017181,126.352776 
	C317.021637,124.765678 316.867828,123.178139 315.716888,121.146873 
	C294.875702,150.184158 274.034546,179.221451 253.100128,208.388657 
	C279.590302,244.409424 305.876892,280.327271 332.420227,316.054321 
	C336.292572,321.266449 338.499664,326.408661 337.957031,332.951050 
	C337.435486,339.239655 337.610687,345.583862 337.374634,351.899719 
	C337.310791,353.607147 336.865509,355.300323 336.595276,357.000061 
	C336.095245,357.163727 335.595184,357.327423 335.095154,357.491089 
	C262.607056,259.326385 190.118973,161.161697 117.249359,62.480339 
	C145.707062,44.810154 176.366791,38.739281 209.422684,40.679153 
z"/>
<path fill="#F0F1F2" opacity="1.000000" stroke="none" 
	d="
M57.001854,175.000000 
	C57.001854,133.394241 57.001854,92.288490 57.001854,49.819923 
	C104.665825,115.445358 151.584991,180.045319 198.714859,244.935379 
	C204.808655,236.284729 210.714767,227.900482 217.074921,218.871719 
	C221.392929,224.946564 225.429474,230.517807 229.299911,236.202148 
	C229.802994,236.940979 229.900345,238.565308 229.427032,239.269913 
	C219.722504,253.717087 209.907608,268.090118 199.747528,283.017303 
	C159.227829,228.265656 119.174957,174.144791 78.203995,118.783371 
	C78.203995,176.717407 78.203995,233.061798 78.203995,289.707977 
	C71.033142,289.707977 64.298553,289.707977 57.001854,289.707977 
	C57.001854,251.671600 57.001854,213.585800 57.001854,175.000000 
z"/>
<path fill="#F0F0F2" opacity="1.000000" stroke="none" 
	d="
M263.820526,317.341400 
	C268.607788,322.774170 273.048309,328.136902 277.914398,334.013519 
	C252.206009,352.573517 223.287170,359.041382 192.668655,357.608002 
	C152.141937,355.710693 117.087151,340.645813 88.224854,310.502533 
	C95.330086,307.579926 101.584633,304.603699 108.131912,302.569763 
	C110.000343,301.989349 113.137993,303.626434 114.981590,305.123566 
	C133.277557,319.980743 154.087143,329.030975 177.229462,333.170135 
	C205.435989,338.215149 231.986099,333.271057 257.366791,320.610107 
	C259.441406,319.575226 261.439941,318.387878 263.820526,317.341400 
z"/>
</svg>